<svg id="Capa_1" enable-background="new 0 0 512 512" height="512" viewBox="0 0 512 512" width="512" xmlns="http://www.w3.org/2000/svg" style="fill: #398860;"><g><path d="m14.996 239.928c0 4.168-3.345 7.512-7.483 7.512-4.139 0-7.512-3.344-7.512-7.512v-206.676c0-6.265 2.551-11.963 6.69-16.102s9.837-6.69 16.102-6.69h186.493c6.265 0 11.962 2.552 16.101 6.69 4.11 4.139 6.661 9.837 6.661 16.102v322.018c0 6.266-2.551 11.963-6.661 16.102-4.139 4.109-9.836 6.689-16.101 6.689h-85.749v53.378l75.913 56.579c3.316 2.467 4.024 7.145 1.559 10.461-2.466 3.316-7.143 4.025-10.46 1.559l-67.011-49.947v43.938c0 4.14-3.373 7.512-7.512 7.512s-7.483-3.372-7.483-7.512v-43.938l-67.043 49.947c-3.316 2.467-7.994 1.758-10.46-1.559-2.438-3.316-1.757-7.994 1.559-10.461l75.941-56.579v-53.378h-85.748c-6.265 0-11.963-2.58-16.102-6.689-4.139-4.139-6.69-9.836-6.69-16.101v-81.355c0-4.139 3.374-7.512 7.512-7.512s7.483 3.373 7.483 7.512v81.355c0 2.127.878 4.082 2.296 5.5 1.417 1.417 3.374 2.295 5.5 2.295h186.493c2.126 0 4.054-.878 5.471-2.295 1.417-1.418 2.296-3.373 2.296-5.5v-322.019c0-2.127-.879-4.083-2.296-5.5-1.389-1.416-3.345-2.296-5.471-2.296h-186.492c-2.126 0-4.083.88-5.5 2.296-1.418 1.417-2.296 3.373-2.296 5.5zm380.981-190.235c11.792 0 22.45 4.791 30.161 12.5 7.738 7.711 12.501 18.369 12.501 30.161 0 11.764-4.763 22.45-12.501 30.161-7.711 7.711-18.369 12.501-30.161 12.501-11.764 0-22.451-4.79-30.161-12.501-7.711-7.711-12.501-18.397-12.501-30.161 0-11.792 4.79-22.45 12.501-30.161 7.709-7.709 18.397-12.5 30.161-12.5zm19.559 23.102c-4.989-4.988-11.905-8.106-19.56-8.106-7.625 0-14.542 3.118-19.56 8.106-4.989 5.018-8.079 11.935-8.079 19.56s3.09 14.542 8.079 19.56c5.018 4.988 11.935 8.106 19.56 8.106 7.654 0 14.57-3.118 19.56-8.106 5.017-5.018 8.107-11.935 8.107-19.56s-3.09-14.543-8.107-19.56zm-299.512-23.102c11.792 0 22.45 4.791 30.16 12.5 7.739 7.711 12.501 18.369 12.501 30.161 0 11.764-4.762 22.45-12.501 30.161-7.71 7.711-18.368 12.501-30.16 12.501-11.764 0-22.423-4.79-30.161-12.501-7.711-7.711-12.501-18.397-12.501-30.161 0-11.792 4.79-22.45 12.501-30.161 7.738-7.709 18.397-12.5 30.161-12.5zm19.559 23.102c-4.989-4.988-11.905-8.106-19.559-8.106-7.626 0-14.543 3.118-19.56 8.106-4.989 5.018-8.079 11.935-8.079 19.56s3.089 14.542 8.079 19.56c5.017 4.988 11.934 8.106 19.56 8.106 7.653 0 14.57-3.118 19.559-8.106 5.018-5.018 8.107-11.935 8.107-19.56s-3.09-14.543-8.107-19.56zm260.394 148.113c9.95 0 18.964 4.024 25.483 10.545 6.521 6.52 10.545 15.533 10.545 25.482 0 9.95-4.024 18.965-10.545 25.484-6.52 6.52-15.533 10.545-25.483 10.545-9.949 0-18.965-4.025-25.484-10.545-6.52-6.52-10.545-15.534-10.545-25.484 0-9.949 4.025-18.963 10.545-25.482 6.519-6.52 15.534-10.545 25.484-10.545zm14.881 21.147c-3.798-3.799-9.07-6.152-14.882-6.152-5.811 0-11.055 2.354-14.883 6.152-3.798 3.798-6.151 9.07-6.151 14.881 0 5.812 2.353 11.056 6.151 14.854 3.828 3.827 9.072 6.18 14.883 6.18s11.084-2.353 14.882-6.18c3.799-3.798 6.151-9.042 6.151-14.854.001-5.811-2.352-11.084-6.151-14.881zm-294.834-21.147c9.949 0 18.964 4.024 25.483 10.545 6.52 6.52 10.545 15.533 10.545 25.482 0 9.95-4.026 18.965-10.545 25.484-6.52 6.52-15.534 10.545-25.483 10.545-9.95 0-18.936-4.025-25.484-10.545-6.52-6.52-10.545-15.534-10.545-25.484 0-9.949 4.025-18.963 10.545-25.482 6.52-6.52 15.534-10.545 25.484-10.545zm14.882 21.147c-3.799-3.799-9.071-6.152-14.882-6.152s-11.056 2.354-14.854 6.152c-3.827 3.798-6.18 9.07-6.18 14.881 0 5.812 2.353 11.056 6.18 14.854 3.798 3.827 9.043 6.18 14.854 6.18s11.083-2.353 14.882-6.18c3.798-3.798 6.151-9.042 6.151-14.854 0-5.811-2.353-11.084-6.151-14.881zm265.071-70.584c23.613 0 44.958 9.581 60.435 25.031 15.45 15.475 25.031 36.821 25.031 60.433 0 23.585-9.581 44.959-25.031 60.407-15.477 15.478-36.821 25.03-60.435 25.03-23.585 0-44.958-9.553-60.436-25.03-15.448-15.448-25.03-36.822-25.03-60.407 0-23.612 9.582-44.958 25.03-60.433 15.478-15.45 36.851-25.031 60.436-25.031zm49.833 35.631c-12.756-12.756-30.358-20.637-49.833-20.637-19.446 0-37.078 7.881-49.806 20.637-12.756 12.757-20.636 30.359-20.636 49.833 0 19.446 7.88 37.078 20.636 49.806 12.728 12.756 30.359 20.637 49.806 20.637 19.475 0 37.077-7.881 49.833-20.637 12.728-12.728 20.637-30.359 20.637-49.806-.001-19.473-7.91-37.076-20.637-49.833zm-329.786-35.631c23.612 0 44.957 9.581 60.435 25.031 15.477 15.475 25.031 36.821 25.031 60.433 0 23.585-9.553 44.959-25.031 60.407-15.478 15.478-36.823 25.03-60.435 25.03-23.585 0-44.958-9.553-60.407-25.03-15.478-15.448-25.03-36.822-25.03-60.407 0-23.612 9.553-44.958 25.03-60.433 15.449-15.45 36.822-25.031 60.407-25.031zm49.833 35.631c-12.756-12.756-30.36-20.637-49.834-20.637-19.446 0-37.049 7.881-49.805 20.637-12.756 12.757-20.637 30.359-20.637 49.833 0 19.446 7.881 37.078 20.637 49.806 12.727 12.756 30.359 20.637 49.805 20.637 19.474 0 37.078-7.881 49.834-20.637 12.756-12.728 20.636-30.359 20.636-49.806.001-19.473-7.88-37.076-20.636-49.833zm155.596 292.936c-3.316 2.467-7.994 1.758-10.46-1.559-2.466-3.316-1.758-7.994 1.559-10.461l75.941-56.579v-53.378h-85.749c-6.294 0-11.991-2.58-16.102-6.689-4.139-4.139-6.69-9.836-6.69-16.102v-81.355c0-4.139 3.345-7.512 7.512-7.512 4.139 0 7.483 3.373 7.483 7.512v81.355c0 2.127.879 4.082 2.296 5.5 1.418 1.417 3.374 2.295 5.5 2.295h186.493c2.126 0 4.054-.878 5.471-2.295 1.418-1.418 2.297-3.373 2.297-5.5v-322.018c0-2.127-.879-4.083-2.297-5.5-1.417-1.416-3.345-2.296-5.471-2.296h-186.492c-2.126 0-4.082.88-5.5 2.296-1.417 1.417-2.296 3.373-2.296 5.5v206.676c0 4.168-3.345 7.512-7.483 7.512-4.167 0-7.512-3.344-7.512-7.512v-206.676c0-6.265 2.551-11.963 6.69-16.102 4.11-4.139 9.808-6.69 16.102-6.69h186.493c6.265 0 11.963 2.552 16.072 6.69 4.139 4.139 6.69 9.837 6.69 16.102v322.018c0 6.266-2.552 11.963-6.69 16.102-4.109 4.109-9.808 6.689-16.072 6.689h-85.749v53.378l75.913 56.579c3.316 2.467 4.025 7.145 1.559 10.461s-7.143 4.025-10.46 1.559l-67.012-49.947v43.938c0 4.14-3.373 7.512-7.512 7.512s-7.483-3.372-7.483-7.512v-43.938z"/></g></svg>