<svg xmlns="http://www.w3.org/2000/svg" width="110" height="82.454" viewBox="0 0 110 82.454">
  <g id="Group_5273" data-name="Group 5273" transform="translate(-2994 -2527.975)">
    <g id="Group_5267" data-name="Group 5267" transform="translate(2994 2527.975)">
      <g id="Group_5258" data-name="Group 5258" transform="translate(0 0)">
        <path id="Path_7676" data-name="Path 7676" d="M3031.118,2552.326h-35.763a1.354,1.354,0,0,1-1.355-1.354V2529.33a1.355,1.355,0,0,1,1.355-1.355h35.763a1.355,1.355,0,0,1,1.354,1.355v21.642A1.354,1.354,0,0,1,3031.118,2552.326Zm-34.409-2.709h33.054v-18.932h-33.054Z" transform="translate(-2994 -2527.975)" fill="#398860"/>
      </g>
      <g id="Group_5259" data-name="Group 5259" transform="translate(35.764 0)">
        <path id="Path_7677" data-name="Path 7677" d="M3295.118,2552.326h-35.763a1.355,1.355,0,0,1-1.355-1.354V2529.33a1.355,1.355,0,0,1,1.355-1.355h35.763a1.355,1.355,0,0,1,1.355,1.355v21.642A1.354,1.354,0,0,1,3295.118,2552.326Zm-34.409-2.709h33.054v-18.932h-33.054Z" transform="translate(-3258 -2527.975)" fill="#398860"/>
      </g>
      <g id="Group_5260" data-name="Group 5260" transform="translate(71.527 0)">
        <path id="Path_7678" data-name="Path 7678" d="M3559.118,2552.326h-35.763a1.355,1.355,0,0,1-1.355-1.354V2529.33a1.355,1.355,0,0,1,1.355-1.355h35.763a1.355,1.355,0,0,1,1.355,1.355v21.642A1.354,1.354,0,0,1,3559.118,2552.326Zm-34.409-2.709h33.054v-18.932h-33.054Z" transform="translate(-3522 -2527.975)" fill="#398860"/>
      </g>
      <g id="Group_5261" data-name="Group 5261" transform="translate(0 21.642)">
        <path id="Path_7679" data-name="Path 7679" d="M3031.118,2712.082h-35.763a1.355,1.355,0,0,1-1.355-1.354v-21.642a1.355,1.355,0,0,1,1.355-1.355h35.763a1.355,1.355,0,0,1,1.354,1.355v21.642A1.355,1.355,0,0,1,3031.118,2712.082Zm-34.409-2.709h33.054v-18.933h-33.054Z" transform="translate(-2994 -2687.73)" fill="#398860"/>
      </g>
      <g id="Group_5262" data-name="Group 5262" transform="translate(35.764 21.642)">
        <path id="Path_7680" data-name="Path 7680" d="M3295.118,2712.082h-35.763a1.355,1.355,0,0,1-1.355-1.354v-21.642a1.355,1.355,0,0,1,1.355-1.355h35.763a1.355,1.355,0,0,1,1.355,1.355v21.642A1.355,1.355,0,0,1,3295.118,2712.082Zm-34.409-2.709h33.054v-18.933h-33.054Z" transform="translate(-3258 -2687.73)" fill="#398860"/>
      </g>
      <g id="Group_5263" data-name="Group 5263" transform="translate(71.527 21.642)">
        <path id="Path_7681" data-name="Path 7681" d="M3559.118,2712.082h-35.763a1.355,1.355,0,0,1-1.355-1.354v-21.642a1.355,1.355,0,0,1,1.355-1.355h35.763a1.355,1.355,0,0,1,1.355,1.355v21.642A1.355,1.355,0,0,1,3559.118,2712.082Zm-34.409-2.709h33.054v-18.933h-33.054Z" transform="translate(-3522 -2687.73)" fill="#398860"/>
      </g>
      <g id="Group_5264" data-name="Group 5264" transform="translate(0 43.284)">
        <path id="Path_7682" data-name="Path 7682" d="M3031.118,2871.838h-35.763a1.355,1.355,0,0,1-1.355-1.355v-21.642a1.355,1.355,0,0,1,1.355-1.354h35.763a1.355,1.355,0,0,1,1.354,1.354v21.642A1.355,1.355,0,0,1,3031.118,2871.838Zm-34.409-2.709h33.054V2850.2h-33.054Z" transform="translate(-2994 -2847.487)" fill="#398860"/>
      </g>
      <g id="Group_5265" data-name="Group 5265" transform="translate(35.764 43.284)">
        <path id="Path_7683" data-name="Path 7683" d="M3295.118,2871.838h-35.763a1.355,1.355,0,0,1-1.355-1.355v-21.642a1.355,1.355,0,0,1,1.355-1.354h35.763a1.355,1.355,0,0,1,1.355,1.354v21.642A1.355,1.355,0,0,1,3295.118,2871.838Zm-34.409-2.709h33.054V2850.2h-33.054Z" transform="translate(-3258 -2847.487)" fill="#398860"/>
      </g>
      <g id="Group_5266" data-name="Group 5266" transform="translate(71.527 43.284)">
        <path id="Path_7684" data-name="Path 7684" d="M3559.118,2871.838h-35.763a1.355,1.355,0,0,1-1.355-1.355v-21.642a1.355,1.355,0,0,1,1.355-1.354h35.763a1.355,1.355,0,0,1,1.355,1.354v21.642A1.355,1.355,0,0,1,3559.118,2871.838Zm-34.409-2.709h33.054V2850.2h-33.054Z" transform="translate(-3522 -2847.487)" fill="#398860"/>
      </g>
    </g>
    <g id="Group_5272" data-name="Group 5272" transform="translate(3007.752 2594.223)">
      <g id="Group_5268" data-name="Group 5268" transform="translate(0 6.721)">
        <path id="Path_7685" data-name="Path 7685" d="M3176.657,3076.1a1.355,1.355,0,0,1-1.355-1.355c0-4.859-4.593-5.421-8.048-5.421h-60.981c-7.214,0-8.048,3.094-8.048,5.421a1.355,1.355,0,1,1-2.709,0,7.189,7.189,0,0,1,3.4-6.49,14.1,14.1,0,0,1,7.358-1.641h60.981a14.1,14.1,0,0,1,7.358,1.641,7.19,7.19,0,0,1,3.4,6.49A1.355,1.355,0,0,1,3176.657,3076.1Z" transform="translate(-3095.516 -3066.617)" fill="#398860"/>
      </g>
      <g id="Group_5271" data-name="Group 5271" transform="translate(10.994 0)">
        <g id="Group_5269" data-name="Group 5269">
          <path id="Path_7686" data-name="Path 7686" d="M3178.027,3025.123a1.355,1.355,0,0,1-1.355-1.355v-5.407a1.355,1.355,0,0,1,2.709,0v5.407A1.355,1.355,0,0,1,3178.027,3025.123Z" transform="translate(-3176.672 -3017.006)" fill="#398860"/>
        </g>
        <g id="Group_5270" data-name="Group 5270" transform="translate(57.798)">
          <path id="Path_7687" data-name="Path 7687" d="M3604.683,3025.123a1.355,1.355,0,0,1-1.354-1.355v-5.407a1.355,1.355,0,1,1,2.709,0v5.407A1.355,1.355,0,0,1,3604.683,3025.123Z" transform="translate(-3603.328 -3017.006)" fill="#398860"/>
        </g>
      </g>
    </g>
  </g>
</svg>